<svg width="23" height="24" viewBox="0 0 23 24" fill="none" xmlns="http://www.w3.org/2000/svg">
<path d="M2.43413 0C1.09193 0 0 1.09197 0 2.43418V21.5658C0 22.908 1.09197 24 2.43418 24H2.80912V0H2.43413Z" fill="white"/>
<path d="M11.0478 9.42892C11.8272 8.70697 13.0288 7.3812 13.0288 6.37729C13.0288 5.28527 12.1403 4.39685 11.0483 4.39685C9.9563 4.39685 9.06793 5.28527 9.06793 6.37729C9.06793 7.38495 10.2685 8.70847 11.0478 9.42892ZM10.191 6.37088C10.191 5.89813 10.5756 5.51354 11.0483 5.51354C11.5211 5.51354 11.9057 5.89813 11.9057 6.37088C11.9057 6.84362 11.5211 7.22821 11.0483 7.22821C10.5756 7.22821 10.191 6.84367 10.191 6.37088Z" fill="white"/>
<path d="M4.21362 0V24H18.3515V0H4.21362ZM11.0483 2.99236C12.9148 2.99236 14.4332 4.51082 14.4332 6.37726C14.4332 8.50072 11.7873 10.6675 11.4856 10.9076L11.0483 11.2555L10.6111 10.9076C10.3094 10.6675 7.66346 8.50072 7.66346 6.37726C7.66346 4.51087 9.18192 2.99236 11.0483 2.99236ZM13.5919 21.1758V20.1614C13.5919 19.6193 13.1509 19.1783 12.6088 19.1783H8.92598C7.60948 19.1783 6.53844 18.1072 6.53844 16.7907C6.53844 15.4742 7.60948 14.4031 8.92598 14.4031H9.36301C9.90508 14.4031 10.3461 13.9621 10.3461 13.42V12.6085H11.7506V13.42C11.7506 14.7365 10.6795 15.8076 9.36301 15.8076H8.92598C8.38391 15.8076 7.9429 16.2486 7.9429 16.7907C7.9429 17.3329 8.38391 17.7738 8.92598 17.7738H12.6088C13.9253 17.7738 14.9964 18.8449 14.9964 20.1614V21.1758H13.5919Z" fill="white"/>
<path d="M19.7559 6.75677H22.0968V10.7045H19.7559V6.75677Z" fill="white"/>
<path d="M19.7559 1.40454H22.0968V5.35226H19.7559V1.40454Z" fill="white"/>
</svg>
